<?xml version="1.0" encoding="UTF-8" standalone="no"?>
<!-- Created with Inkscape (http://www.inkscape.org/) -->

<svg
   xmlns:dc="http://purl.org/dc/elements/1.1/"
   xmlns:cc="http://creativecommons.org/ns#"
   xmlns:rdf="http://www.w3.org/1999/02/22-rdf-syntax-ns#"
   xmlns:svg="http://www.w3.org/2000/svg"
   xmlns="http://www.w3.org/2000/svg"
   xmlns:sodipodi="http://sodipodi.sourceforge.net/DTD/sodipodi-0.dtd"
   xmlns:inkscape="http://www.inkscape.org/namespaces/inkscape"
   width="9mm"
   height="5mm"
   viewBox="0 0 90 50"
   id="svg5142"
   version="1.1"
   inkscape:version="0.91 r13725"
   sodipodi:docname="gold.svg">
  <defs
     id="defs3" />
  <sodipodi:namedview
     id="base"
     pagecolor="#ffffff"
     bordercolor="#666666"
     borderopacity="1.0"
     inkscape:pageopacity="0.0"
     inkscape:pageshadow="2"
     inkscape:zoom="10.934781"
     inkscape:cx="30.455724"
     inkscape:cy="22.676785"
     inkscape:document-units="mm"
     inkscape:current-layer="layer1"
     showgrid="false"
     inkscape:window-width="1301"
     inkscape:window-height="744"
     inkscape:window-x="65"
     inkscape:window-y="24"
     inkscape:window-maximized="1"
     inkscape:snap-grids="true"
     inkscape:snap-to-guides="true"
     showguides="false" />
  <metadata
     id="metadata5146">
    <rdf:RDF>
      <cc:Work
         rdf:about="">
        <dc:format>image/svg+xml</dc:format>
        <dc:type
           rdf:resource="http://purl.org/dc/dcmitype/StillImage" />
        <dc:title />
      </cc:Work>
    </rdf:RDF>
  </metadata>
  <g
     inkscape:label="Layer 1"
     inkscape:groupmode="layer"
     id="layer1">
    <rect
       style="fill:#c4c4c4;fill-opacity:1"
       id="rect3416"
       width="32.637638"
       height="32.788033"
       x="2.0203733"
       y="7.817986"
       transform="matrix(0.99994995,0.01000472,0,1,0,0)"
       ry="1" />
    <rect
       style="fill:#c7c7c7;fill-opacity:1"
       id="rect3421"
       width="33.355919"
       height="2.4356678"
       x="37.967567"
       y="10.734098"
       transform="matrix(0.99999954,9.5558616e-4,0,1,0,0)"
       ry="1"
       rx="0.65159005" />
    <rect
       style="fill:#c4c4c4;fill-opacity:1"
       id="rect3430"
       width="8.8789158"
       height="2.2142432"
       x="38.207546"
       y="16.269703"
       transform="matrix(0.99999954,9.5558616e-4,0,1,0,0)"
       ry="1"
       rx="0.99995637" />
    <rect
       style="fill:#c4c4c4;fill-opacity:1"
       id="rect3436"
       width="12.238503"
       height="4.4284863"
       x="38.447517"
       y="22.469587"
       transform="matrix(0.99999954,9.5558616e-4,0,1,0,0)"
       ry="1"
       rx="0.99995637" />
    <rect
       style="fill:#fedb78;fill-opacity:1"
       id="rect3438"
       width="15.118152"
       height="2.6570001"
       x="38.207546"
       y="31.547983"
       transform="matrix(0.99999954,9.5558616e-4,0,1,0,0)"
       ry="1"
       rx="0.099995635" />
    <rect
       style="fill:#c6c6c6;fill-opacity:1"
       id="rect3442"
       width="11.518592"
       height="1.9928188"
       x="38.207546"
       y="37.74786"
       transform="matrix(0.99999954,9.5558616e-4,0,1,0,0)"
       ry="1"
       rx="0.99995637" />
    <rect
       style="fill:#fedb7d;fill-opacity:1"
       id="rect3438-3"
       width="15.118152"
       height="2.6570926"
       x="53.685665"
       y="31.547983"
       transform="matrix(0.99999954,9.5558616e-4,0,1,0,0)" />
    <rect
       style="fill:#d4d4da;fill-opacity:1"
       id="rect3438-6"
       width="15.118152"
       height="2.6570926"
       x="69.283745"
       y="31.547983"
       transform="matrix(0.99999954,9.5558616e-4,0,1,0,0)" />
    <rect
       style="fill:#c6c6c6;fill-opacity:1"
       id="rect3442-7"
       width="11.518592"
       height="1.9928188"
       x="52.317715"
       y="37.669228"
       transform="matrix(0.99999954,9.5558616e-4,0,1,0,0)"
       rx="0.99995637"
       ry="1" />
    <rect
       style="fill:#c7c7c7;fill-opacity:1"
       id="rect3442-5"
       width="15.35812"
       height="1.9928188"
       x="66.188095"
       y="37.600784"
       transform="matrix(0.99999954,9.5558616e-4,0,1,0,0)"
       rx="0.99995637"
       ry="1" />
    <rect
       style="fill:#c4c4c4;fill-opacity:1"
       id="rect3430-3"
       width="14.158269"
       height="2.2142432"
       x="51.28595"
       y="16.269711"
       transform="matrix(0.99999954,9.5558616e-4,0,1,0,0)"
       ry="1"
       rx="0.99995637" />
    <text
       xml:space="preserve"
       style="font-style:normal;font-weight:normal;font-size:0.0521587px;line-height:125%;font-family:sans-serif;letter-spacing:0px;word-spacing:0px;fill:#000000;fill-opacity:1;stroke:none;stroke-width:1px;stroke-linecap:butt;stroke-linejoin:miter;stroke-opacity:1"
       x="37.162437"
       y="35.378258"
       id="text3509"
       sodipodi:linespacing="125%"
       transform="matrix(1.0410373,9.9480035e-4,0,0.96058038,0,0)"><tspan
         sodipodi:role="line"
         id="tspan3511"
         x="37.162437"
         y="35.378258">jjnjnjnjnnjnjnjn</tspan></text>
    <text
       xml:space="preserve"
       style="font-style:normal;font-weight:normal;font-size:0.0521587px;line-height:125%;font-family:sans-serif;letter-spacing:0px;word-spacing:0px;fill:#000000;fill-opacity:1;stroke:none;stroke-width:1px;stroke-linecap:butt;stroke-linejoin:miter;stroke-opacity:1"
       x="46.843895"
       y="33.073139"
       id="text3513"
       sodipodi:linespacing="125%"
       transform="matrix(1.0410373,9.9480035e-4,0,0.96058038,0,0)"><tspan
         sodipodi:role="line"
         id="tspan3515"
         x="46.843895"
         y="33.073139">ewe</tspan></text>
    <rect
       style="fill:#f4c649;fill-opacity:1"
       id="rect3436-9"
       width="12.238873"
       height="7.6740761"
       x="77.335365"
       y="9.7529936"
       transform="matrix(0.99996928,0.00783853,0,1,0,0)"
       inkscape:transform-center-y="-5.6231595"
       ry="1"
       rx="0.99989831" />
    <flowRoot
       xml:space="preserve"
       id="flowRoot6971"
       style="fill:black;stroke:none;stroke-opacity:1;stroke-width:1px;stroke-linejoin:miter;stroke-linecap:butt;fill-opacity:1;font-family:sans-serif;font-style:normal;font-weight:normal;font-size:6.25px;line-height:125%;letter-spacing:0px;word-spacing:0px"><flowRegion
         id="flowRegion6973"><rect
           id="rect6975"
           width="0"
           height="6.8048911"
           x="295.33228"
           y="46.511448" /></flowRegion><flowPara
         id="flowPara6977" /></flowRoot>    <rect
       style="fill:#d42aff;fill-opacity:0;stroke:#b5b5b5;stroke-width:0.19867562;stroke-linejoin:round;stroke-miterlimit:4;stroke-dasharray:none;stroke-opacity:1"
       id="rect4248"
       width="87.679306"
       height="32.877827"
       x="2.0755055"
       y="8.047452"
       ry="0.98488814" />
  </g>
</svg>
