<?xml version="1.0" encoding="UTF-8" standalone="no"?>
<!-- Created with Inkscape (http://www.inkscape.org/) -->

<svg
   xmlns:dc="http://purl.org/dc/elements/1.1/"
   xmlns:cc="http://creativecommons.org/ns#"
   xmlns:rdf="http://www.w3.org/1999/02/22-rdf-syntax-ns#"
   xmlns:svg="http://www.w3.org/2000/svg"
   xmlns="http://www.w3.org/2000/svg"
   xmlns:sodipodi="http://sodipodi.sourceforge.net/DTD/sodipodi-0.dtd"
   xmlns:inkscape="http://www.inkscape.org/namespaces/inkscape"
   width="9mm"
   height="5mm"
   viewBox="0 0 90 50"
   id="svg5142"
   version="1.1"
   inkscape:version="0.91 r13725"
   sodipodi:docname="platium.svg">
  <defs
     id="defs3" />
  <sodipodi:namedview
     id="base"
     pagecolor="#ffffff"
     bordercolor="#666666"
     borderopacity="1.0"
     inkscape:pageopacity="0.0"
     inkscape:pageshadow="2"
     inkscape:zoom="14.481547"
     inkscape:cx="13.272921"
     inkscape:cy="10.032039"
     inkscape:document-units="mm"
     inkscape:current-layer="layer1"
     showgrid="false"
     inkscape:window-width="1301"
     inkscape:window-height="744"
     inkscape:window-x="65"
     inkscape:window-y="24"
     inkscape:window-maximized="1"
     inkscape:snap-grids="true"
     inkscape:snap-to-guides="true"
     showguides="false" />
  <metadata
     id="metadata5146">
    <rdf:RDF>
      <cc:Work
         rdf:about="">
        <dc:format>image/svg+xml</dc:format>
        <dc:type
           rdf:resource="http://purl.org/dc/dcmitype/StillImage" />
        <dc:title />
      </cc:Work>
    </rdf:RDF>
  </metadata>
  <g
     inkscape:label="Layer 1"
     inkscape:groupmode="layer"
     id="layer1">
    <flowRoot
       xml:space="preserve"
       id="flowRoot6971"
       style="fill:black;stroke:none;stroke-opacity:1;stroke-width:1px;stroke-linejoin:miter;stroke-linecap:butt;fill-opacity:1;font-family:sans-serif;font-style:normal;font-weight:normal;font-size:6.25px;line-height:125%;letter-spacing:0px;word-spacing:0px"><flowRegion
         id="flowRegion6973"><rect
           id="rect6975"
           width="0"
           height="6.8048911"
           x="295.33228"
           y="46.511448" /></flowRegion><flowPara
         id="flowPara6977" /></flowRoot>    <rect
       style="fill:#c4c4c4;fill-opacity:1"
       id="rect3416-3"
       width="32.636505"
       height="32.788033"
       x="2.0977829"
       y="8.1999168"
       transform="matrix(0.99998449,0.0055698,0,1,0,0)"
       ry="1" />
    <rect
       style="fill:#c4c4c4;fill-opacity:1"
       id="rect3421-6"
       width="33.356041"
       height="2.4356678"
       x="38.045177"
       y="11.076684"
       transform="matrix(0.99999595,-0.00284435,0,1,0,0)"
       ry="1"
       rx="0.65159237" />
    <rect
       style="fill:#c8c8c8;fill-opacity:1"
       id="rect3430-7"
       width="8.8789473"
       height="2.2142432"
       x="38.285152"
       y="16.612289"
       transform="matrix(0.99999595,-0.00284435,0,1,0,0)"
       ry="1"
       rx="0.99995995" />
    <rect
       style="fill:#c4c4c4;fill-opacity:1"
       id="rect3436-5"
       width="12.238546"
       height="4.4284863"
       x="38.525127"
       y="22.812172"
       transform="matrix(0.99999595,-0.00284435,0,1,0,0)"
       ry="1"
       rx="0.99995995" />
    <rect
       style="fill:#00c853;fill-opacity:1"
       id="rect3438-35"
       width="15.118206"
       height="2.6570001"
       x="38.285152"
       y="31.890566"
       transform="matrix(0.99999595,-0.00284435,0,1,0,0)"
       ry="1"
       rx="0.099995993" />
    <rect
       style="fill:#c4c4c4;fill-opacity:1"
       id="rect3442-6"
       width="11.518633"
       height="1.9928188"
       x="38.285152"
       y="38.09045"
       transform="matrix(0.99999595,-0.00284435,0,1,0,0)"
       ry="1"
       rx="0.99995995" />
    <rect
       style="fill:#00c853;fill-opacity:1"
       id="rect3438-3-2"
       width="15.118206"
       height="2.6570926"
       x="53.763329"
       y="31.890566"
       transform="matrix(0.99999595,-0.00284435,0,1,0,0)" />
    <rect
       style="fill:#00c853;fill-opacity:1"
       id="rect3438-6-9"
       width="15.118206"
       height="2.6570926"
       x="69.361465"
       y="31.890566"
       transform="matrix(0.99999595,-0.00284435,0,1,0,0)" />
    <rect
       style="fill:#c4c4c4;fill-opacity:1"
       id="rect3442-7-1"
       width="11.518633"
       height="1.9928188"
       x="52.395378"
       y="38.011814"
       transform="matrix(0.99999595,-0.00284435,0,1,0,0)"
       rx="0.99995995"
       ry="1" />
    <rect
       style="fill:#c4c4c4;fill-opacity:1"
       id="rect3442-5-2"
       width="15.358174"
       height="1.9928188"
       x="66.265816"
       y="37.943371"
       transform="matrix(0.99999595,-0.00284435,0,1,0,0)"
       rx="0.99995995"
       ry="1" />
    <rect
       style="fill:#c8c8c8;fill-opacity:1"
       id="rect3430-3-7"
       width="14.15832"
       height="2.2142432"
       x="51.363609"
       y="16.612289"
       transform="matrix(0.99999595,-0.00284435,0,1,0,0)"
       ry="1"
       rx="0.99995995" />
    <text
       xml:space="preserve"
       style="font-style:normal;font-weight:normal;font-size:0.0521587px;line-height:125%;font-family:sans-serif;letter-spacing:0px;word-spacing:0px;fill:#00c853;fill-opacity:1;stroke:none;stroke-width:1px;stroke-linecap:butt;stroke-linejoin:miter;stroke-opacity:1"
       x="37.236862"
       y="35.734901"
       id="text3509-0"
       sodipodi:linespacing="125%"
       transform="matrix(1.0410373,-0.00296108,0,0.96058038,0,0)"><tspan
         sodipodi:role="line"
         id="tspan3511-9"
         x="37.236862"
         y="35.734901">jjnjnjnjnnjnjnjn</tspan></text>
    <text
       xml:space="preserve"
       style="font-style:normal;font-weight:normal;font-size:0.0521587px;line-height:125%;font-family:sans-serif;letter-spacing:0px;word-spacing:0px;fill:#00c853;fill-opacity:1;stroke:none;stroke-width:1px;stroke-linecap:butt;stroke-linejoin:miter;stroke-opacity:1"
       x="46.91832"
       y="33.429779"
       id="text3513-3"
       sodipodi:linespacing="125%"
       transform="matrix(1.0410373,-0.00296108,0,0.96058038,0,0)"><tspan
         sodipodi:role="line"
         id="tspan3515-6"
         x="46.91832"
         y="33.429779">ewe</tspan></text>
    <rect
       style="fill:#f4c649;fill-opacity:1"
       id="rect3436-9-0"
       width="12.238596"
       height="7.6740756"
       x="77.525757"
       y="10.125579"
       transform="matrix(0.99999184,0.0040388,0,1,0,0)"
       inkscape:transform-center-y="-5.6231601"
       ry="1"
       rx="0.99987566" />
    <rect
       style="fill:#d42aff;fill-opacity:0;stroke:#b5b5b5;stroke-width:0.19867562;stroke-linejoin:round;stroke-miterlimit:4;stroke-dasharray:none;stroke-opacity:1"
       id="rect4248-6"
       width="87.680168"
       height="32.877827"
       x="2.1530018"
       y="8.4301548"
       ry="0.9848882"
       transform="matrix(0.99999016,-0.00443529,0,1,0,0)" />
  </g>
</svg>
